<mxfile host="app.diagrams.net" agent="Mozilla/5.0 (X11; Ubuntu; Linux x86_64; rv:138.0) Gecko/20100101 Firefox/138.0" version="27.1.6">
  <diagram name="Page-1" id="39ExF-_bgHhNcSW75Xoy">
    <mxGraphModel dx="1642" dy="521" grid="1" gridSize="10" guides="1" tooltips="1" connect="1" arrows="1" fold="1" page="1" pageScale="1" pageWidth="827" pageHeight="1169" background="#ffffff" math="0" shadow="0">
      <root>
        <mxCell id="0" />
        <mxCell id="1" parent="0" />
        <mxCell id="tpYtFP5ifBW1Jw1R120Z-12" value="FDT01" style="swimlane;startSize=20;horizontal=1;childLayout=flowLayout;flowOrientation=north;resizable=0;interRankCellSpacing=50;containerType=tree;fontSize=12;" vertex="1" parent="1">
          <mxGeometry x="120" y="40" width="160" height="80" as="geometry" />
        </mxCell>
        <mxCell id="tpYtFP5ifBW1Jw1R120Z-52" value="&lt;div&gt;1&lt;/div&gt;" style="whiteSpace=wrap;html=1;" vertex="1" parent="tpYtFP5ifBW1Jw1R120Z-12">
          <mxGeometry x="20" y="40" width="120" height="20" as="geometry" />
        </mxCell>
        <mxCell id="tpYtFP5ifBW1Jw1R120Z-23" value="ODC-001" style="swimlane;startSize=20;horizontal=1;childLayout=flowLayout;flowOrientation=north;resizable=0;interRankCellSpacing=50;containerType=tree;fontSize=12;" vertex="1" parent="1">
          <mxGeometry x="320" y="40" width="790" height="280" as="geometry" />
        </mxCell>
        <mxCell id="tpYtFP5ifBW1Jw1R120Z-24" value="1:4" style="whiteSpace=wrap;html=1;" vertex="1" parent="tpYtFP5ifBW1Jw1R120Z-23">
          <mxGeometry x="335" y="40" width="120" height="40" as="geometry" />
        </mxCell>
        <mxCell id="tpYtFP5ifBW1Jw1R120Z-25" value="&lt;div&gt;1:16&lt;/div&gt;" style="whiteSpace=wrap;html=1;" vertex="1" parent="tpYtFP5ifBW1Jw1R120Z-23">
          <mxGeometry x="150" y="130" width="100" height="40" as="geometry" />
        </mxCell>
        <mxCell id="tpYtFP5ifBW1Jw1R120Z-26" value="" style="html=1;rounded=1;curved=0;sourcePerimeterSpacing=0;targetPerimeterSpacing=0;startSize=6;endSize=6;noEdgeStyle=1;orthogonal=1;" edge="1" parent="tpYtFP5ifBW1Jw1R120Z-23" source="tpYtFP5ifBW1Jw1R120Z-24" target="tpYtFP5ifBW1Jw1R120Z-25">
          <mxGeometry relative="1" as="geometry">
            <Array as="points">
              <mxPoint x="353.75" y="92" />
              <mxPoint x="200" y="118" />
            </Array>
          </mxGeometry>
        </mxCell>
        <mxCell id="tpYtFP5ifBW1Jw1R120Z-67" value="" style="html=1;rounded=1;curved=0;sourcePerimeterSpacing=0;targetPerimeterSpacing=0;startSize=6;endSize=6;noEdgeStyle=1;orthogonal=1;" edge="1" target="tpYtFP5ifBW1Jw1R120Z-68" source="tpYtFP5ifBW1Jw1R120Z-24" parent="tpYtFP5ifBW1Jw1R120Z-23">
          <mxGeometry relative="1" as="geometry">
            <Array as="points">
              <mxPoint x="381.25" y="94" />
              <mxPoint x="330" y="118" />
            </Array>
            <mxPoint x="720" y="680" as="sourcePoint" />
          </mxGeometry>
        </mxCell>
        <mxCell id="tpYtFP5ifBW1Jw1R120Z-68" value="&lt;div&gt;1:16&lt;/div&gt;" style="whiteSpace=wrap;html=1;" vertex="1" parent="tpYtFP5ifBW1Jw1R120Z-23">
          <mxGeometry x="280" y="130" width="100" height="40" as="geometry" />
        </mxCell>
        <mxCell id="tpYtFP5ifBW1Jw1R120Z-69" value="" style="html=1;rounded=1;curved=0;sourcePerimeterSpacing=0;targetPerimeterSpacing=0;startSize=6;endSize=6;noEdgeStyle=1;orthogonal=1;" edge="1" target="tpYtFP5ifBW1Jw1R120Z-70" source="tpYtFP5ifBW1Jw1R120Z-24" parent="tpYtFP5ifBW1Jw1R120Z-23">
          <mxGeometry relative="1" as="geometry">
            <Array as="points">
              <mxPoint x="408.75" y="94" />
              <mxPoint x="460" y="118" />
            </Array>
            <mxPoint x="728" y="640" as="sourcePoint" />
          </mxGeometry>
        </mxCell>
        <mxCell id="tpYtFP5ifBW1Jw1R120Z-70" value="&lt;div&gt;1:16&lt;/div&gt;" style="whiteSpace=wrap;html=1;" vertex="1" parent="tpYtFP5ifBW1Jw1R120Z-23">
          <mxGeometry x="410" y="130" width="100" height="40" as="geometry" />
        </mxCell>
        <mxCell id="tpYtFP5ifBW1Jw1R120Z-71" value="" style="html=1;rounded=1;curved=0;sourcePerimeterSpacing=0;targetPerimeterSpacing=0;startSize=6;endSize=6;noEdgeStyle=1;orthogonal=1;" edge="1" target="tpYtFP5ifBW1Jw1R120Z-72" source="tpYtFP5ifBW1Jw1R120Z-24" parent="tpYtFP5ifBW1Jw1R120Z-23">
          <mxGeometry relative="1" as="geometry">
            <Array as="points">
              <mxPoint x="436.25" y="92" />
              <mxPoint x="590" y="118" />
            </Array>
            <mxPoint x="837" y="600" as="sourcePoint" />
          </mxGeometry>
        </mxCell>
        <mxCell id="tpYtFP5ifBW1Jw1R120Z-72" value="&lt;div&gt;1:16&lt;/div&gt;" style="whiteSpace=wrap;html=1;" vertex="1" parent="tpYtFP5ifBW1Jw1R120Z-23">
          <mxGeometry x="540" y="130" width="100" height="40" as="geometry" />
        </mxCell>
        <mxCell id="tpYtFP5ifBW1Jw1R120Z-73" value="" style="html=1;rounded=1;curved=0;sourcePerimeterSpacing=0;targetPerimeterSpacing=0;startSize=6;endSize=6;noEdgeStyle=1;orthogonal=1;" edge="1" target="tpYtFP5ifBW1Jw1R120Z-74" source="tpYtFP5ifBW1Jw1R120Z-25" parent="tpYtFP5ifBW1Jw1R120Z-23">
          <mxGeometry relative="1" as="geometry">
            <Array as="points">
              <mxPoint x="166.25" y="182" />
              <mxPoint x="70" y="208" />
            </Array>
            <mxPoint x="804" y="560" as="sourcePoint" />
          </mxGeometry>
        </mxCell>
        <mxCell id="tpYtFP5ifBW1Jw1R120Z-74" value="&lt;div&gt;1:16&lt;/div&gt;" style="whiteSpace=wrap;html=1;" vertex="1" parent="tpYtFP5ifBW1Jw1R120Z-23">
          <mxGeometry x="20" y="220" width="100" height="40" as="geometry" />
        </mxCell>
        <mxCell id="tpYtFP5ifBW1Jw1R120Z-82" value="&lt;div&gt;1:16&lt;/div&gt;" style="whiteSpace=wrap;html=1;" vertex="1" parent="tpYtFP5ifBW1Jw1R120Z-23">
          <mxGeometry x="150" y="220" width="100" height="40" as="geometry" />
        </mxCell>
        <mxCell id="tpYtFP5ifBW1Jw1R120Z-81" value="" style="html=1;rounded=1;curved=0;sourcePerimeterSpacing=0;targetPerimeterSpacing=0;startSize=6;endSize=6;noEdgeStyle=1;orthogonal=1;" edge="1" target="tpYtFP5ifBW1Jw1R120Z-82" source="tpYtFP5ifBW1Jw1R120Z-25" parent="tpYtFP5ifBW1Jw1R120Z-23">
          <mxGeometry relative="1" as="geometry">
            <Array as="points">
              <mxPoint x="188.75" y="184" />
              <mxPoint x="200" y="208" />
            </Array>
            <mxPoint x="764" y="480" as="sourcePoint" />
          </mxGeometry>
        </mxCell>
        <mxCell id="tpYtFP5ifBW1Jw1R120Z-85" value="" style="html=1;rounded=1;curved=0;sourcePerimeterSpacing=0;targetPerimeterSpacing=0;startSize=6;endSize=6;noEdgeStyle=1;orthogonal=1;" edge="1" target="tpYtFP5ifBW1Jw1R120Z-86" source="tpYtFP5ifBW1Jw1R120Z-25" parent="tpYtFP5ifBW1Jw1R120Z-23">
          <mxGeometry relative="1" as="geometry">
            <Array as="points">
              <mxPoint x="211.25" y="184" />
              <mxPoint x="330" y="208" />
            </Array>
            <mxPoint x="553" y="410" as="sourcePoint" />
          </mxGeometry>
        </mxCell>
        <mxCell id="tpYtFP5ifBW1Jw1R120Z-86" value="&lt;div&gt;1:16&lt;/div&gt;" style="whiteSpace=wrap;html=1;" vertex="1" parent="tpYtFP5ifBW1Jw1R120Z-23">
          <mxGeometry x="280" y="220" width="100" height="40" as="geometry" />
        </mxCell>
        <mxCell id="tpYtFP5ifBW1Jw1R120Z-87" value="" style="html=1;rounded=1;curved=0;sourcePerimeterSpacing=0;targetPerimeterSpacing=0;startSize=6;endSize=6;noEdgeStyle=1;orthogonal=1;" edge="1" target="tpYtFP5ifBW1Jw1R120Z-88" source="tpYtFP5ifBW1Jw1R120Z-25" parent="tpYtFP5ifBW1Jw1R120Z-23">
          <mxGeometry relative="1" as="geometry">
            <Array as="points">
              <mxPoint x="233.75" y="182" />
              <mxPoint x="460" y="208" />
            </Array>
            <mxPoint x="540" y="370" as="sourcePoint" />
          </mxGeometry>
        </mxCell>
        <mxCell id="tpYtFP5ifBW1Jw1R120Z-88" value="&lt;div&gt;1:16&lt;/div&gt;" style="whiteSpace=wrap;html=1;" vertex="1" parent="tpYtFP5ifBW1Jw1R120Z-23">
          <mxGeometry x="410" y="220" width="100" height="40" as="geometry" />
        </mxCell>
        <mxCell id="tpYtFP5ifBW1Jw1R120Z-89" value="" style="html=1;rounded=1;curved=0;sourcePerimeterSpacing=0;targetPerimeterSpacing=0;startSize=6;endSize=6;noEdgeStyle=1;orthogonal=1;" edge="1" target="tpYtFP5ifBW1Jw1R120Z-90" source="tpYtFP5ifBW1Jw1R120Z-68" parent="tpYtFP5ifBW1Jw1R120Z-23">
          <mxGeometry relative="1" as="geometry">
            <Array as="points">
              <mxPoint x="307.5" y="182" />
              <mxPoint x="590" y="208" />
            </Array>
            <mxPoint x="671" y="240" as="sourcePoint" />
          </mxGeometry>
        </mxCell>
        <mxCell id="tpYtFP5ifBW1Jw1R120Z-90" value="&lt;div&gt;1:16&lt;/div&gt;" style="whiteSpace=wrap;html=1;" vertex="1" parent="tpYtFP5ifBW1Jw1R120Z-23">
          <mxGeometry x="540" y="220" width="100" height="40" as="geometry" />
        </mxCell>
        <mxCell id="tpYtFP5ifBW1Jw1R120Z-91" value="" style="html=1;rounded=1;curved=0;sourcePerimeterSpacing=0;targetPerimeterSpacing=0;startSize=6;endSize=6;noEdgeStyle=1;orthogonal=1;" edge="1" target="tpYtFP5ifBW1Jw1R120Z-92" source="tpYtFP5ifBW1Jw1R120Z-68" parent="tpYtFP5ifBW1Jw1R120Z-23">
          <mxGeometry relative="1" as="geometry">
            <Array as="points">
              <mxPoint x="352.5" y="182" />
              <mxPoint x="720" y="208" />
            </Array>
            <mxPoint x="716" y="200" as="sourcePoint" />
          </mxGeometry>
        </mxCell>
        <mxCell id="tpYtFP5ifBW1Jw1R120Z-92" value="&lt;div&gt;1:16&lt;/div&gt;" style="whiteSpace=wrap;html=1;" vertex="1" parent="tpYtFP5ifBW1Jw1R120Z-23">
          <mxGeometry x="670" y="220" width="100" height="40" as="geometry" />
        </mxCell>
        <mxCell id="tpYtFP5ifBW1Jw1R120Z-57" value="OTB" style="swimlane;startSize=20;horizontal=1;childLayout=flowLayout;flowOrientation=north;resizable=0;interRankCellSpacing=50;containerType=tree;fontSize=12;" vertex="1" parent="1">
          <mxGeometry x="-80" y="40" width="160" height="80" as="geometry" />
        </mxCell>
        <mxCell id="tpYtFP5ifBW1Jw1R120Z-58" value="&lt;div&gt;1&lt;/div&gt;" style="whiteSpace=wrap;html=1;" vertex="1" parent="tpYtFP5ifBW1Jw1R120Z-57">
          <mxGeometry x="20" y="40" width="120" height="20" as="geometry" />
        </mxCell>
        <mxCell id="tpYtFP5ifBW1Jw1R120Z-59" style="edgeStyle=orthogonalEdgeStyle;rounded=0;orthogonalLoop=1;jettySize=auto;html=1;exitX=1;exitY=0.5;exitDx=0;exitDy=0;entryX=0;entryY=0.5;entryDx=0;entryDy=0;" edge="1" parent="1" source="tpYtFP5ifBW1Jw1R120Z-58" target="tpYtFP5ifBW1Jw1R120Z-52">
          <mxGeometry relative="1" as="geometry" />
        </mxCell>
        <mxCell id="tpYtFP5ifBW1Jw1R120Z-66" style="edgeStyle=orthogonalEdgeStyle;rounded=0;orthogonalLoop=1;jettySize=auto;html=1;exitX=1;exitY=0.5;exitDx=0;exitDy=0;entryX=0;entryY=0.5;entryDx=0;entryDy=0;" edge="1" parent="1" source="tpYtFP5ifBW1Jw1R120Z-52" target="tpYtFP5ifBW1Jw1R120Z-24">
          <mxGeometry relative="1" as="geometry" />
        </mxCell>
      </root>
    </mxGraphModel>
  </diagram>
</mxfile>
